<svg width="0" height="0" class="hidden">
  <symbol xmlns="http://www.w3.org/2000/svg" fill="#172189" viewBox="0 0 24 24" id="qoute">
    <path d="M14.017 21v-7.391c0-5.704 3.731-9.57 8.983-10.609l.995 2.151c-2.432.917-3.995 3.638-3.995 5.849h4v10h-9.983zm-14.017 0v-7.391c0-5.704 3.748-9.57 9-10.609l.996 2.151c-2.433.917-3.996 3.638-3.996 5.849h3.983v10h-9.983z"></path>
  </symbol>
  <symbol xmlns="http://www.w3.org/2000/svg" viewBox="0 0 24 24" id="triangle">
    <path d="M23.677 18.52c.914 1.523-.183 3.472-1.967 3.472h-19.414c-1.784 0-2.881-1.949-1.967-3.472l9.709-16.18c.891-1.483 3.041-1.48 3.93 0l9.709 16.18z"></path>
  </symbol>
</svg>